<?xml version="1.0" standalone="no"?>
<!DOCTYPE svg PUBLIC "-//W3C//DTD SVG 20010904//EN"
 "http://www.w3.org/TR/2001/REC-SVG-20010904/DTD/svg10.dtd">
<svg version="1.0" xmlns="http://www.w3.org/2000/svg"
 width="1358.000000pt" height="1373.000000pt" viewBox="0 0 1358.000000 1373.000000"
 preserveAspectRatio="xMidYMid meet">

<g transform="translate(0.000000,1373.000000) scale(0.100000,-0.100000)"
fill="#000000" stroke="none">
<path d="M6520 13479 c-1495 -55 -2936 -618 -4075 -1593 -180 -154 -577 -551
-731 -731 -918 -1076 -1467 -2404 -1579 -3820 -21 -265 -21 -756 0 -1020 68
-851 280 -1629 660 -2420 127 -263 302 -563 499 -855 336 -498 889 -1082 1401
-1477 1026 -793 2248 -1267 3545 -1375 92 -8 311 -13 535 -13 404 0 563 9 880
51 1261 165 2495 716 3445 1537 897 775 1533 1695 1935 2797 448 1226 519
2608 200 3880 -365 1454 -1208 2743 -2395 3661 -531 411 -1130 740 -1780 979
-810 298 -1664 432 -2540 399z m725 -485 c369 -28 672 -76 1010 -160 1365
-340 2549 -1110 3411 -2219 743 -956 1190 -2120 1279 -3335 82 -1112 -141
-2235 -640 -3225 -49 -98 -95 -181 -101 -182 -6 -2 -15 14 -20 34 -8 35 -12
38 -54 45 -25 3 -2473 6 -5440 6 l-5395 0 -62 118 c-174 334 -354 821 -464
1259 -212 841 -238 1788 -74 2645 235 1228 823 2338 1705 3220 490 490 1066
901 1665 1189 1010 486 2082 690 3180 605z m-4982 -10236 c3 -10 674 -13 3317
-11 1822 1 3316 5 3319 10 10 13 191 17 191 4 0 -14 246 -15 255 -1 8 13 132
13 140 0 3 -5 28 -10 55 -10 27 0 52 5 55 10 8 14 378 13 391 0 7 -7 146 -13
368 -17 287 -5 359 -4 366 7 8 14 103 16 107 3 2 -4 136 -7 299 -5 l296 4 -32
-46 c-50 -69 -397 -413 -550 -546 -1006 -870 -2241 -1391 -3560 -1502 -202
-17 -808 -17 -1010 0 -1302 109 -2539 625 -3520 1468 -215 185 -578 545 -610
604 -10 19 -8 20 45 20 35 0 54 4 50 10 -3 6 0 10 9 10 8 0 16 -6 19 -12z"/>
<path d="M3860 8910 c-25 -5 -58 -13 -73 -19 -16 -6 -88 -11 -162 -11 -78 0
-136 -4 -140 -10 -9 -14 -85 -13 -85 1 0 14 -242 7 -262 -8 -7 -5 -24 -7 -38
-5 -72 11 -150 13 -150 3 0 -7 -30 -10 -88 -9 -85 3 -88 2 -142 -34 -70 -46
-100 -75 -100 -94 0 -9 -12 -39 -26 -68 -26 -49 -27 -59 -35 -291 -5 -132 -13
-253 -19 -269 -5 -16 -10 -60 -10 -97 0 -60 -2 -69 -18 -69 -11 0 -27 -9 -37
-20 -23 -25 -37 -165 -27 -281 l7 -84 4298 -3 4297 -2 0 -133 c0 -118 3 -138
23 -177 29 -58 47 -68 89 -51 18 7 92 17 163 21 172 11 185 16 221 92 l29 61
0 396 0 396 -25 54 c-22 46 -32 57 -77 77 -66 31 -151 32 -270 3 -157 -37
-153 -32 -153 -220 l0 -129 -50 0 -50 0 0 153 c0 124 -3 161 -19 202 -10 28
-22 73 -26 100 -7 46 -8 48 -18 25 l-10 -25 -7 34 c-5 20 -4 44 3 58 17 38 -9
214 -39 254 -13 18 -24 38 -24 44 0 7 -23 26 -50 44 -67 43 -112 49 -473 55
-234 5 -313 10 -370 23 -62 15 -128 18 -491 18 l-419 0 -16 -42 -15 -43 -2027
0 -2026 0 -13 45 -12 44 -497 -1 c-273 0 -516 -4 -541 -8z"/>
<path d="M3255 7146 c-16 -7 -41 -26 -55 -41 -25 -26 -25 -30 -28 -218 -3
-187 -3 -193 20 -227 43 -64 67 -70 298 -70 231 0 255 6 298 70 23 34 23 40
20 227 -3 188 -3 192 -28 219 -46 49 -72 54 -292 54 -147 -1 -211 -4 -233 -14z"/>
<path d="M4065 7146 c-16 -7 -41 -26 -55 -41 -25 -27 -25 -27 -25 -230 0 -203
0 -203 25 -230 46 -50 72 -55 292 -55 228 0 253 6 296 70 23 34 23 40 20 227
-3 188 -3 192 -28 219 -46 49 -72 54 -292 54 -147 -1 -211 -4 -233 -14z"/>
<path d="M4871 7142 c-19 -9 -44 -30 -55 -45 -20 -26 -21 -42 -21 -222 0 -180
1 -196 21 -222 42 -57 68 -63 294 -63 180 0 210 3 247 19 68 31 73 51 73 268
0 284 1 283 -317 283 -178 0 -213 -3 -242 -18z"/>
<path d="M5705 7146 c-16 -7 -41 -26 -55 -41 -25 -26 -25 -30 -28 -218 -3
-187 -3 -193 20 -227 43 -64 68 -70 296 -70 220 0 246 5 292 55 25 27 25 27
25 230 0 203 0 203 -25 230 -46 50 -72 55 -292 55 -147 -1 -211 -4 -233 -14z"/>
<path d="M6515 7146 c-16 -7 -41 -26 -55 -41 -25 -26 -25 -30 -28 -218 -3
-187 -3 -193 20 -227 43 -64 67 -70 298 -70 231 0 255 6 298 70 23 34 23 40
20 227 -3 188 -3 192 -28 219 -46 49 -72 54 -292 54 -147 -1 -211 -4 -233 -14z"/>
<path d="M7321 7142 c-19 -9 -44 -30 -55 -45 -20 -26 -21 -42 -21 -222 0 -180
1 -196 21 -222 42 -57 68 -63 294 -63 180 0 210 3 247 19 68 31 73 51 73 268
0 284 1 283 -317 283 -178 0 -213 -3 -242 -18z"/>
<path d="M8171 7142 c-19 -9 -44 -30 -55 -45 -20 -26 -21 -42 -21 -220 0 -183
1 -194 22 -223 42 -58 68 -64 295 -64 178 0 208 3 245 19 68 31 73 51 73 268
0 284 1 283 -317 283 -178 0 -213 -3 -242 -18z"/>
<path d="M8981 7142 c-19 -9 -44 -30 -55 -45 -20 -26 -21 -42 -21 -222 0 -180
1 -196 21 -222 42 -57 68 -63 294 -63 180 0 210 3 247 19 68 31 73 51 73 268
0 284 1 283 -317 283 -178 0 -213 -3 -242 -18z"/>
<path d="M9791 7143 c-65 -32 -71 -55 -71 -267 0 -285 2 -286 323 -286 222 0
249 6 291 63 20 27 21 42 21 222 0 180 -1 196 -21 222 -42 58 -68 63 -299 63
-175 0 -216 -3 -244 -17z"/>
<path d="M2814 6371 c-62 -38 -64 -46 -64 -259 0 -290 -9 -282 317 -282 324 0
323 -1 323 275 0 180 -7 211 -54 255 -28 25 -28 25 -259 28 -215 2 -234 1
-263 -17z"/>
<path d="M3624 6371 c-62 -38 -64 -46 -64 -259 0 -291 -10 -282 320 -282 215
0 234 1 260 20 52 37 60 71 60 254 0 181 -7 212 -54 256 -28 25 -28 25 -259
28 -215 2 -234 1 -263 -17z"/>
<path d="M4433 6370 c-57 -34 -63 -59 -63 -260 0 -196 5 -219 56 -259 25 -20
38 -21 264 -21 226 0 239 1 264 21 51 40 56 63 56 261 0 280 2 278 -327 278
-199 0 -221 -2 -250 -20z"/>
<path d="M5260 6368 c-56 -38 -60 -53 -60 -267 l0 -193 39 -39 39 -39 233 0
c332 0 329 -2 329 280 0 184 -4 203 -55 250 -27 25 -27 25 -259 28 -228 3
-232 3 -266 -20z"/>
<path d="M6074 6371 c-62 -38 -64 -46 -64 -259 0 -290 -9 -282 317 -282 205 0
231 2 259 19 55 34 64 69 64 255 0 181 -7 212 -54 256 -28 25 -28 25 -259 28
-215 2 -234 1 -263 -17z"/>
<path d="M6893 6374 c-66 -33 -73 -59 -73 -263 0 -197 5 -220 56 -260 25 -20
38 -21 264 -21 226 0 239 1 264 21 51 40 56 63 56 261 0 279 1 278 -322 278
-175 0 -219 -3 -245 -16z"/>
<path d="M7740 6372 c-62 -30 -70 -62 -70 -265 0 -193 5 -216 56 -256 25 -20
38 -21 264 -21 226 0 239 1 264 21 51 40 56 63 56 261 0 164 -2 186 -20 215
-35 59 -55 63 -297 63 -188 0 -223 -2 -253 -18z"/>
<path d="M8543 6370 c-57 -34 -63 -59 -63 -260 0 -196 5 -219 56 -259 25 -20
38 -21 265 -21 l239 0 38 34 37 34 3 193 c4 216 -1 237 -57 275 -35 24 -39 24
-261 24 -206 0 -228 -2 -257 -20z"/>
<path d="M9375 6380 c-27 -11 -61 -49 -74 -83 -6 -16 -11 -101 -11 -194 0
-185 9 -220 64 -254 28 -17 54 -19 259 -19 326 0 317 -8 317 283 0 182 -1 196
-21 221 -41 53 -60 56 -296 55 -120 0 -227 -4 -238 -9z"/>
<path d="M10180 6368 c-56 -38 -60 -53 -60 -267 l0 -193 39 -39 39 -39 233 0
c332 0 329 -2 329 280 0 184 -4 203 -55 250 -27 25 -27 25 -259 28 -228 3
-232 3 -266 -20z"/>
<path d="M2382 5570 c-54 -33 -62 -67 -62 -260 0 -193 7 -224 63 -258 32 -21
46 -22 258 -22 326 0 322 -4 317 295 l-3 195 -33 32 -32 33 -238 3 c-224 2
-239 1 -270 -18z"/>
<path d="M3193 5570 c-57 -34 -63 -59 -63 -255 0 -198 8 -232 62 -265 31 -18
50 -20 258 -20 324 0 320 -3 320 283 0 175 -1 186 -23 218 -38 56 -50 59 -297
59 -206 0 -228 -2 -257 -20z"/>
<path d="M4003 5569 c-52 -33 -63 -77 -63 -260 0 -174 7 -205 54 -249 l28 -25
238 -3 238 -3 36 31 c50 45 58 85 54 274 -2 136 -6 166 -22 192 -37 61 -50 64
-303 64 -212 0 -230 -2 -260 -21z"/>
<path d="M4832 5570 c-54 -33 -62 -67 -62 -261 0 -191 9 -226 64 -260 28 -17
54 -19 257 -19 219 0 227 1 260 23 55 37 59 52 59 266 l0 193 -39 39 -39 39
-233 0 c-217 0 -236 -2 -267 -20z"/>
<path d="M5642 5570 c-54 -33 -62 -67 -62 -260 0 -193 8 -227 62 -260 31 -18
50 -20 258 -20 327 0 323 -4 318 296 l-3 196 -37 34 -38 34 -232 0 c-216 0
-235 -2 -266 -20z"/>
<path d="M6457 5572 c-55 -34 -67 -80 -67 -260 0 -177 7 -208 55 -252 l27 -25
243 0 244 0 30 29 c43 42 51 79 51 255 0 134 -3 160 -20 196 -35 72 -47 75
-307 75 -198 0 -232 -3 -256 -18z"/>
<path d="M7309 5573 c-55 -34 -64 -64 -67 -239 -4 -182 4 -227 48 -269 l31
-30 244 0 243 0 27 25 c48 44 55 75 55 252 0 141 -3 167 -20 203 -35 72 -47
75 -307 75 -193 0 -232 -3 -254 -17z"/>
<path d="M8113 5569 c-52 -33 -63 -77 -63 -260 0 -178 7 -208 59 -252 l33 -27
233 0 234 0 36 31 c49 44 57 84 53 273 -2 136 -6 166 -22 192 -37 61 -50 64
-303 64 -212 0 -230 -2 -260 -21z"/>
<path d="M8927 5569 c-52 -39 -57 -62 -57 -261 0 -202 4 -218 59 -255 33 -22
41 -23 260 -23 203 0 229 2 257 19 55 34 64 69 64 260 0 194 -8 228 -62 261
-31 18 -50 20 -263 20 -217 -1 -232 -2 -258 -21z"/>
<path d="M9752 5570 c-54 -33 -62 -67 -62 -261 0 -191 9 -226 64 -260 28 -17
53 -19 256 -19 327 0 323 -4 318 295 l-3 195 -33 32 -32 33 -238 3 c-224 2
-239 1 -270 -18z"/>
<path d="M10582 5570 c-56 -35 -64 -68 -60 -276 l3 -184 38 -37 37 -38 230 -3
c255 -3 273 0 310 61 18 29 20 51 20 226 l0 193 -39 39 -39 39 -233 0 c-217 0
-236 -2 -267 -20z"/>
</g>
</svg>
